<svg id="kity_svg_6" xmlns="http://www.w3.org/2000/svg" xmlns:xlink="http://www.w3.org/1999/xlink" version="1.1" width="766" height="2615" style="background: rgb(251, 251, 251); visibility: visible;" viewBox="0 0 766 2615"><defs id="kity_defs_7"><linearGradient id="kity_linearGradient_17" x1="0" y1="0" x2="0" y2="1"><stop id="kity_stop_18" offset="0" stop-color="rgb(255, 255, 255)"></stop><stop id="kity_stop_19" offset="1" stop-color="rgb(204, 204, 204)"></stop></linearGradient><marker id="kity_marker_2" orient="auto" refX="6" refY="0" viewBox="-7 -7 14 14" markerWidth="7" markerHeight="7" markerUnits="userSpaceOnUse"><path id="kity_path_3" fill="rgb(115, 161, 191)" stroke="none" d="M6,0A6,6,0,1,1,-6,0A6,6,0,1,1,6,0"></path></marker></defs><g id="kity_g_8"><g id="minder1" text-rendering="optimize-speed"><g id="minder_connect_group1"><path id="kity_path_31" fill="none" stroke="rgb(115, 161, 191)" stroke-width="1" d="M64.5,1823.5A161,759,0,0,1,225.5,1064.5"></path><path id="kity_path_33" fill="none" stroke="rgb(115, 161, 191)" stroke-width="1" d="M301.5,1064.5C321.5,1064.5,321.5,902.5,341.5,902.5"></path><path id="kity_path_35" fill="none" stroke="rgb(115, 161, 191)" stroke-width="1" d="M400.5,902.5C420.5,902.5,420.5,629.5,440.5,629.5"></path><path id="kity_path_37" fill="none" stroke="rgb(115, 161, 191)" stroke-width="1" d="M492.5,629.5C512.5,629.5,512.5,239.5,532.5,239.5"></path><path id="kity_path_39" fill="none" stroke="rgb(115, 161, 191)" stroke-width="1" d="M571.5,239.5C591.5,239.5,591.5,31.5,611.5,31.5"></path><path id="kity_path_41" fill="none" stroke="rgb(115, 161, 191)" stroke-width="1" d="M571.5,239.5C591.5,239.5,591.5,83.5,611.5,83.5"></path><path id="kity_path_43" fill="none" stroke="rgb(115, 161, 191)" stroke-width="1" d="M571.5,239.5C591.5,239.5,591.5,135.5,611.5,135.5"></path><path id="kity_path_45" fill="none" stroke="rgb(115, 161, 191)" stroke-width="1" d="M571.5,239.5C591.5,239.5,591.5,187.5,611.5,187.5"></path><path id="kity_path_47" fill="none" stroke="rgb(115, 161, 191)" stroke-width="1" d="M571.5,239.5C591.5,239.5,591.5,239.5,611.5,239.5"></path><path id="kity_path_49" fill="none" stroke="rgb(115, 161, 191)" stroke-width="1" d="M571.5,239.5C591.5,239.5,591.5,291.5,611.5,291.5"></path><path id="kity_path_51" fill="none" stroke="rgb(115, 161, 191)" stroke-width="1" d="M571.5,239.5C591.5,239.5,591.5,343.5,611.5,343.5"></path><path id="kity_path_53" fill="none" stroke="rgb(115, 161, 191)" stroke-width="1" d="M571.5,239.5C591.5,239.5,591.5,395.5,611.5,395.5"></path><path id="kity_path_55" fill="none" stroke="rgb(115, 161, 191)" stroke-width="1" d="M571.5,239.5C591.5,239.5,591.5,447.5,611.5,447.5"></path><path id="kity_path_57" fill="none" stroke="rgb(115, 161, 191)" stroke-width="1" d="M492.5,629.5C512.5,629.5,512.5,499.5,532.5,499.5"></path><path id="kity_path_59" fill="none" stroke="rgb(115, 161, 191)" stroke-width="1" d="M492.5,629.5C512.5,629.5,512.5,551.5,532.5,551.5"></path><path id="kity_path_61" fill="none" stroke="rgb(115, 161, 191)" stroke-width="1" d="M492.5,629.5C512.5,629.5,512.5,603.5,532.5,603.5"></path><path id="kity_path_63" fill="none" stroke="rgb(115, 161, 191)" stroke-width="1" d="M492.5,629.5C512.5,629.5,512.5,655.5,532.5,655.5"></path><path id="kity_path_65" fill="none" stroke="rgb(115, 161, 191)" stroke-width="1" d="M492.5,629.5C512.5,629.5,512.5,707.5,532.5,707.5"></path><path id="kity_path_67" fill="none" stroke="rgb(115, 161, 191)" stroke-width="1" d="M492.5,629.5C512.5,629.5,512.5,759.5,532.5,759.5"></path><path id="kity_path_69" fill="none" stroke="rgb(115, 161, 191)" stroke-width="1" d="M492.5,629.5C512.5,629.5,512.5,811.5,532.5,811.5"></path><path id="kity_path_71" fill="none" stroke="rgb(115, 161, 191)" stroke-width="1" d="M492.5,629.5C512.5,629.5,512.5,863.5,532.5,863.5"></path><path id="kity_path_73" fill="none" stroke="rgb(115, 161, 191)" stroke-width="1" d="M492.5,629.5C512.5,629.5,512.5,915.5,532.5,915.5"></path><path id="kity_path_75" fill="none" stroke="rgb(115, 161, 191)" stroke-width="1" d="M492.5,629.5C512.5,629.5,512.5,967.5,532.5,967.5"></path><path id="kity_path_77" fill="none" stroke="rgb(115, 161, 191)" stroke-width="1" d="M492.5,629.5C512.5,629.5,512.5,1019.5,532.5,1019.5"></path><path id="kity_path_79" fill="none" stroke="rgb(115, 161, 191)" stroke-width="1" d="M400.5,902.5C420.5,902.5,420.5,1071.5,440.5,1071.5"></path><path id="kity_path_81" fill="none" stroke="rgb(115, 161, 191)" stroke-width="1" d="M488.5,1071.5C508.5,1071.5,508.5,1071.5,528.5,1071.5"></path><path id="kity_path_83" fill="none" stroke="rgb(115, 161, 191)" stroke-width="1" d="M400.5,902.5C420.5,902.5,420.5,1123.5,440.5,1123.5"></path><path id="kity_path_85" fill="none" stroke="rgb(115, 161, 191)" stroke-width="1" d="M400.5,902.5C420.5,902.5,420.5,1175.5,440.5,1175.5"></path><path id="kity_path_87" fill="none" stroke="rgb(115, 161, 191)" stroke-width="1" d="M301.5,1064.5C321.5,1064.5,321.5,1227.5,341.5,1227.5"></path><path id="kity_path_89" fill="none" stroke="rgb(115, 161, 191)" stroke-width="1" d="M64.5,1823.5A161,509,0,0,1,225.5,1314.5"></path><path id="kity_path_91" fill="none" stroke="rgb(115, 161, 191)" stroke-width="1" d="M291.5,1314.5C311.5,1314.5,311.5,1288.5,331.5,1288.5"></path><path id="kity_path_93" fill="none" stroke="rgb(115, 161, 191)" stroke-width="1" d="M291.5,1314.5C311.5,1314.5,311.5,1340.5,331.5,1340.5"></path><path id="kity_path_95" fill="none" stroke="rgb(115, 161, 191)" stroke-width="1" d="M64.5,1823.5A161,239,0,0,1,225.5,1584.5"></path><path id="kity_path_97" fill="none" stroke="rgb(115, 161, 191)" stroke-width="1" d="M331.5,1584.5C351.5,1584.5,351.5,1454.5,371.5,1454.5"></path><path id="kity_path_99" fill="none" stroke="rgb(115, 161, 191)" stroke-width="1" d="M430.5,1454.5C450.5,1454.5,450.5,1402.5,470.5,1402.5"></path><path id="kity_path_101" fill="none" stroke="rgb(115, 161, 191)" stroke-width="1" d="M430.5,1454.5C450.5,1454.5,450.5,1454.5,470.5,1454.5"></path><path id="kity_path_103" fill="none" stroke="rgb(115, 161, 191)" stroke-width="1" d="M430.5,1454.5C450.5,1454.5,450.5,1506.5,470.5,1506.5"></path><path id="kity_path_105" fill="none" stroke="rgb(115, 161, 191)" stroke-width="1" d="M331.5,1584.5C351.5,1584.5,351.5,1558.5,371.5,1558.5"></path><path id="kity_path_107" fill="none" stroke="rgb(115, 161, 191)" stroke-width="1" d="M331.5,1584.5C351.5,1584.5,351.5,1610.5,371.5,1610.5"></path><path id="kity_path_109" fill="none" stroke="rgb(115, 161, 191)" stroke-width="1" d="M331.5,1584.5C351.5,1584.5,351.5,1662.5,371.5,1662.5"></path><path id="kity_path_111" fill="none" stroke="rgb(115, 161, 191)" stroke-width="1" d="M331.5,1584.5C351.5,1584.5,351.5,1714.5,371.5,1714.5"></path><path id="kity_path_113" fill="none" stroke="rgb(115, 161, 191)" stroke-width="1" d="M64.5,1823.5A161,499,0,0,0,225.5,2322.5"></path><path id="kity_path_115" fill="none" stroke="rgb(115, 161, 191)" stroke-width="1" d="M286.5,2322.5C306.5,2322.5,306.5,2192.5,326.5,2192.5"></path><path id="kity_path_117" fill="none" stroke="rgb(115, 161, 191)" stroke-width="1" d="M378.5,2192.5C398.5,2192.5,398.5,1984.5,418.5,1984.5"></path><path id="kity_path_119" fill="none" stroke="rgb(115, 161, 191)" stroke-width="1" d="M457.5,1984.5C477.5,1984.5,477.5,1776.5,497.5,1776.5"></path><path id="kity_path_121" fill="none" stroke="rgb(115, 161, 191)" stroke-width="1" d="M457.5,1984.5C477.5,1984.5,477.5,1828.5,497.5,1828.5"></path><path id="kity_path_123" fill="none" stroke="rgb(115, 161, 191)" stroke-width="1" d="M457.5,1984.5C477.5,1984.5,477.5,1880.5,497.5,1880.5"></path><path id="kity_path_125" fill="none" stroke="rgb(115, 161, 191)" stroke-width="1" d="M457.5,1984.5C477.5,1984.5,477.5,1932.5,497.5,1932.5"></path><path id="kity_path_127" fill="none" stroke="rgb(115, 161, 191)" stroke-width="1" d="M457.5,1984.5C477.5,1984.5,477.5,1984.5,497.5,1984.5"></path><path id="kity_path_129" fill="none" stroke="rgb(115, 161, 191)" stroke-width="1" d="M457.5,1984.5C477.5,1984.5,477.5,2036.5,497.5,2036.5"></path><path id="kity_path_131" fill="none" stroke="rgb(115, 161, 191)" stroke-width="1" d="M457.5,1984.5C477.5,1984.5,477.5,2088.5,497.5,2088.5"></path><path id="kity_path_133" fill="none" stroke="rgb(115, 161, 191)" stroke-width="1" d="M457.5,1984.5C477.5,1984.5,477.5,2140.5,497.5,2140.5"></path><path id="kity_path_135" fill="none" stroke="rgb(115, 161, 191)" stroke-width="1" d="M457.5,1984.5C477.5,1984.5,477.5,2192.5,497.5,2192.5"></path><path id="kity_path_137" fill="none" stroke="rgb(115, 161, 191)" stroke-width="1" d="M378.5,2192.5C398.5,2192.5,398.5,2244.5,418.5,2244.5"></path><path id="kity_path_139" fill="none" stroke="rgb(115, 161, 191)" stroke-width="1" d="M378.5,2192.5C398.5,2192.5,398.5,2296.5,418.5,2296.5"></path><path id="kity_path_141" fill="none" stroke="rgb(115, 161, 191)" stroke-width="1" d="M378.5,2192.5C398.5,2192.5,398.5,2348.5,418.5,2348.5"></path><path id="kity_path_143" fill="none" stroke="rgb(115, 161, 191)" stroke-width="1" d="M378.5,2192.5C398.5,2192.5,398.5,2400.5,418.5,2400.5"></path><path id="kity_path_145" fill="none" stroke="rgb(115, 161, 191)" stroke-width="1" d="M286.5,2322.5C306.5,2322.5,306.5,2452.5,326.5,2452.5"></path><path id="kity_path_147" fill="none" stroke="rgb(115, 161, 191)" stroke-width="1" d="M374.5,2452.5C394.5,2452.5,394.5,2452.5,414.5,2452.5"></path><path id="kity_path_149" fill="none" stroke="rgb(115, 161, 191)" stroke-width="1" d="M64.5,1823.5A161,693,0,0,0,225.5,2516.5"></path><path id="kity_path_151" fill="none" stroke="rgb(115, 161, 191)" stroke-width="1" d="M64.5,1823.5A161,759,0,0,0,225.5,2582.5"></path></g><g id="minder_node1"><path id="node_outline1" fill="rgb(115, 161, 191)" stroke="rgb(57, 80, 96)" d="M26.5,1803.5h76a5,5,0,0,1,5,5v30a5,5,0,0,1,-5,5h-76a5,5,0,0,1,-5,-5v-30a5,5,0,0,1,5,-5z" stroke-width="3"></path><g id="node_text1" fill="white"><text id="kity_text_22" text-rendering="inherit" font-size="16" dy=".8em" y="1813.0999999046326" x="45.5">main</text></g></g><g id="kity_g_12"><path id="kity_path_13" fill="none" stroke="none" d="M45.5,1823.5h0v0h0z"></path></g><g id="kity_g_14"><path id="kity_path_15" fill="none" stroke="none" d="M45.5,1823.5h0v0h0z"></path><path id="kity_path_16" fill="none" stroke="none"></path></g><g id="minder_node2"><g id="node_expander29" style="cursor: pointer;"><path id="kity_path_420" fill="white" stroke="gray" d="M226.5,1064.5A6,6,0,1,1,214.5,1064.5A6,6,0,1,1,226.5,1064.5"></path><path id="kity_path_421" fill="none" stroke="gray" d="M216,1064.5L225,1064.5"></path></g><path id="node_outline30" fill="rgb(238, 243, 246)" stroke="rgb(115, 161, 191)" d="M230.5,1051.5h68a3,3,0,0,1,3,3v20a3,3,0,0,1,-3,3h-68a3,3,0,0,1,-3,-3v-20a3,3,0,0,1,3,-3z" stroke-width="1"></path><g id="node_text30" fill="black"><text id="kity_text_209" text-rendering="inherit" font-size="14" dy=".8em" y="1055.4000000953674" x="247.5">build</text></g></g><g id="minder_node3"><g id="node_expander27" style="cursor: pointer;"><path id="kity_path_414" fill="white" stroke="gray" d="M341.5,902.5A6,6,0,1,1,329.5,902.5A6,6,0,1,1,341.5,902.5"></path><path id="kity_path_415" fill="none" stroke="gray" d="M331,902.5L340,902.5"></path></g><path id="node_outline28" fill="none" stroke="none" d="M346.5,891.5h49a5,5,0,0,1,5,5v12a5,5,0,0,1,-5,5h-49a5,5,0,0,1,-5,-5v-12a5,5,0,0,1,5,-5z"></path><g id="node_text28" fill="black"><text id="kity_text_205" text-rendering="inherit" font-size="12" dy=".8em" y="894.7000000476837" x="351.5">classes</text></g></g><g id="minder_node4"><g id="node_expander22" style="cursor: pointer;"><path id="kity_path_399" fill="white" stroke="gray" d="M440.5,629.5A6,6,0,1,1,428.5,629.5A6,6,0,1,1,440.5,629.5"></path><path id="kity_path_400" fill="none" stroke="gray" d="M430,629.5L439,629.5"></path></g><path id="node_outline23" fill="none" stroke="none" d="M445.5,618.5h42a5,5,0,0,1,5,5v12a5,5,0,0,1,-5,5h-42a5,5,0,0,1,-5,-5v-12a5,5,0,0,1,5,-5z"></path><g id="node_text23" fill="black"><text id="kity_text_195" text-rendering="inherit" font-size="12" dy=".8em" y="621.7000000476837" x="450.5">game</text></g></g><g id="minder_node5"><g id="node_expander10" style="cursor: pointer;"><path id="kity_path_363" fill="white" stroke="gray" d="M532.5,239.5A6,6,0,1,1,520.5,239.5A6,6,0,1,1,532.5,239.5"></path><path id="kity_path_364" fill="none" stroke="gray" d="M522,239.5L531,239.5"></path></g><path id="node_outline11" fill="none" stroke="none" d="M537.5,228.5h29a5,5,0,0,1,5,5v12a5,5,0,0,1,-5,5h-29a5,5,0,0,1,-5,-5v-12a5,5,0,0,1,5,-5z"></path><g id="node_text11" fill="black"><text id="kity_text_171" text-rendering="inherit" font-size="12" dy=".8em" y="231.70000004768372" x="542.5">obj</text></g></g><g id="minder_node6"><g id="node_expander1" style="cursor: pointer;" display="none"><path id="kity_path_336" fill="white" stroke="gray" d="M611.5,31.5A6,6,0,1,1,599.5,31.5A6,6,0,1,1,611.5,31.5"></path><path id="kity_path_337" fill="none" stroke="gray"></path></g><path id="node_outline2" fill="none" stroke="none" d="M616.5,20.5h88a5,5,0,0,1,5,5v12a5,5,0,0,1,-5,5h-88a5,5,0,0,1,-5,-5v-12a5,5,0,0,1,5,-5z"></path><g id="node_text2" fill="black"><text id="kity_text_153" text-rendering="inherit" font-size="12" dy=".8em" y="23.700000047683716" x="621.5">Asteroid.class</text></g></g><g id="minder_node7"><g id="node_expander2" style="cursor: pointer;" display="none"><path id="kity_path_339" fill="white" stroke="gray" d="M611.5,83.5A6,6,0,1,1,599.5,83.5A6,6,0,1,1,611.5,83.5"></path><path id="kity_path_340" fill="none" stroke="gray"></path></g><path id="node_outline3" fill="none" stroke="none" d="M616.5,72.5h66a5,5,0,0,1,5,5v12a5,5,0,0,1,-5,5h-66a5,5,0,0,1,-5,-5v-12a5,5,0,0,1,5,-5z"></path><g id="node_text3" fill="black"><text id="kity_text_155" text-rendering="inherit" font-size="12" dy=".8em" y="75.70000004768372" x="621.5">HUD.class</text></g></g><g id="minder_node8"><g id="node_expander3" style="cursor: pointer;" display="none"><path id="kity_path_342" fill="white" stroke="gray" d="M611.5,135.5A6,6,0,1,1,599.5,135.5A6,6,0,1,1,611.5,135.5"></path><path id="kity_path_343" fill="none" stroke="gray"></path></g><path id="node_outline4" fill="none" stroke="none" d="M616.5,124.5h91a5,5,0,0,1,5,5v12a5,5,0,0,1,-5,5h-91a5,5,0,0,1,-5,-5v-12a5,5,0,0,1,5,-5z"></path><g id="node_text4" fill="black"><text id="kity_text_157" text-rendering="inherit" font-size="12" dy=".8em" y="127.70000004768372" x="621.5">initializer.class</text></g></g><g id="minder_node9"><g id="node_expander4" style="cursor: pointer;" display="none"><path id="kity_path_345" fill="white" stroke="gray" d="M611.5,187.5A6,6,0,1,1,599.5,187.5A6,6,0,1,1,611.5,187.5"></path><path id="kity_path_346" fill="none" stroke="gray"></path></g><path id="node_outline5" fill="none" stroke="none" d="M616.5,176.5h77a5,5,0,0,1,5,5v12a5,5,0,0,1,-5,5h-77a5,5,0,0,1,-5,-5v-12a5,5,0,0,1,5,-5z"></path><g id="node_text5" fill="black"><text id="kity_text_159" text-rendering="inherit" font-size="12" dy=".8em" y="179.70000004768372" x="621.5">Saucer.class</text></g></g><g id="minder_node10"><g id="node_expander5" style="cursor: pointer;" display="none"><path id="kity_path_348" fill="white" stroke="gray" d="M611.5,239.5A6,6,0,1,1,599.5,239.5A6,6,0,1,1,611.5,239.5"></path><path id="kity_path_349" fill="none" stroke="gray"></path></g><path id="node_outline6" fill="none" stroke="none" d="M616.5,228.5h105a5,5,0,0,1,5,5v12a5,5,0,0,1,-5,5h-105a5,5,0,0,1,-5,-5v-12a5,5,0,0,1,5,-5z"></path><g id="node_text6" fill="black"><text id="kity_text_161" text-rendering="inherit" font-size="12" dy=".8em" y="231.70000004768372" x="621.5">SaucerShot.class</text></g></g><g id="minder_node11"><g id="node_expander6" style="cursor: pointer;" display="none"><path id="kity_path_351" fill="white" stroke="gray" d="M611.5,291.5A6,6,0,1,1,599.5,291.5A6,6,0,1,1,611.5,291.5"></path><path id="kity_path_352" fill="none" stroke="gray"></path></g><path id="node_outline7" fill="none" stroke="none" d="M616.5,280.5h65a5,5,0,0,1,5,5v12a5,5,0,0,1,-5,5h-65a5,5,0,0,1,-5,-5v-12a5,5,0,0,1,5,-5z"></path><g id="node_text7" fill="black"><text id="kity_text_163" text-rendering="inherit" font-size="12" dy=".8em" y="283.7000000476837" x="621.5">Ship.class</text></g></g><g id="minder_node12"><g id="node_expander7" style="cursor: pointer;" display="none"><path id="kity_path_354" fill="white" stroke="gray" d="M611.5,343.5A6,6,0,1,1,599.5,343.5A6,6,0,1,1,611.5,343.5"></path><path id="kity_path_355" fill="none" stroke="gray"></path></g><path id="node_outline8" fill="#ffffff" stroke="none" d="M616.5,332.5h126a5,5,0,0,1,5,5v12a5,5,0,0,1,-5,5h-126a5,5,0,0,1,-5,-5v-12a5,5,0,0,1,5,-5z" stroke-width="3"></path><g id="node_text8" fill="black"><text id="kity_text_165" text-rendering="inherit" font-size="12" dy=".8em" y="335.7000000476837" x="621.5">ShipPropulsion.class</text></g></g><g id="minder_node13"><g id="node_expander8" style="cursor: pointer;" display="none"><path id="kity_path_357" fill="white" stroke="gray" d="M611.5,395.5A6,6,0,1,1,599.5,395.5A6,6,0,1,1,611.5,395.5"></path><path id="kity_path_358" fill="none" stroke="gray"></path></g><path id="node_outline9" fill="none" stroke="none" d="M616.5,384.5h66a5,5,0,0,1,5,5v12a5,5,0,0,1,-5,5h-66a5,5,0,0,1,-5,-5v-12a5,5,0,0,1,5,-5z"></path><g id="node_text9" fill="black"><text id="kity_text_167" text-rendering="inherit" font-size="12" dy=".8em" y="387.7000000476837" x="621.5">Shot.class</text></g></g><g id="minder_node14"><g id="node_expander9" style="cursor: pointer;" display="none"><path id="kity_path_360" fill="white" stroke="gray" d="M611.5,447.5A6,6,0,1,1,599.5,447.5A6,6,0,1,1,611.5,447.5"></path><path id="kity_path_361" fill="none" stroke="gray"></path></g><path id="node_outline10" fill="none" stroke="none" d="M616.5,436.5h73a5,5,0,0,1,5,5v12a5,5,0,0,1,-5,5h-73a5,5,0,0,1,-5,-5v-12a5,5,0,0,1,5,-5z"></path><g id="node_text10" fill="black"><text id="kity_text_169" text-rendering="inherit" font-size="12" dy=".8em" y="439.7000000476837" x="621.5">Spark.class</text></g></g><g id="minder_node15"><g id="node_expander11" style="cursor: pointer;" display="none"><path id="kity_path_366" fill="white" stroke="gray" d="M532.5,499.5A6,6,0,1,1,520.5,499.5A6,6,0,1,1,532.5,499.5"></path><path id="kity_path_367" fill="none" stroke="gray"></path></g><path id="node_outline12" fill="none" stroke="none" d="M537.5,488.5h163a5,5,0,0,1,5,5v12a5,5,0,0,1,-5,5h-163a5,5,0,0,1,-5,-5v-12a5,5,0,0,1,5,-5z"></path><g id="node_text12" fill="black"><text id="kity_text_173" text-rendering="inherit" font-size="12" dy=".8em" y="491.7000000476837" x="542.5">AsteroidsGame$State.class</text></g></g><g id="minder_node16"><g id="node_expander12" style="cursor: pointer;" display="none"><path id="kity_path_369" fill="white" stroke="gray" d="M532.5,551.5A6,6,0,1,1,520.5,551.5A6,6,0,1,1,532.5,551.5"></path><path id="kity_path_370" fill="none" stroke="gray"></path></g><path id="node_outline13" fill="none" stroke="none" d="M537.5,540.5h127a5,5,0,0,1,5,5v12a5,5,0,0,1,-5,5h-127a5,5,0,0,1,-5,-5v-12a5,5,0,0,1,5,-5z"></path><g id="node_text13" fill="black"><text id="kity_text_175" text-rendering="inherit" font-size="12" dy=".8em" y="543.7000000476837" x="542.5">AsteroidsGame.class</text></g></g><g id="minder_node17"><g id="node_expander13" style="cursor: pointer;" display="none"><path id="kity_path_372" fill="white" stroke="gray" d="M532.5,603.5A6,6,0,1,1,520.5,603.5A6,6,0,1,1,532.5,603.5"></path><path id="kity_path_373" fill="none" stroke="gray"></path></g><path id="node_outline14" fill="none" stroke="none" d="M537.5,592.5h96a5,5,0,0,1,5,5v12a5,5,0,0,1,-5,5h-96a5,5,0,0,1,-5,-5v-12a5,5,0,0,1,5,-5z"></path><g id="node_text14" fill="black"><text id="kity_text_177" text-rendering="inherit" font-size="12" dy=".8em" y="595.7000000476837" x="542.5">Display$1.class</text></g></g><g id="minder_node18"><g id="node_expander14" style="cursor: pointer;" display="none"><path id="kity_path_375" fill="white" stroke="gray" d="M532.5,655.5A6,6,0,1,1,520.5,655.5A6,6,0,1,1,532.5,655.5"></path><path id="kity_path_376" fill="none" stroke="gray"></path></g><path id="node_outline15" fill="none" stroke="none" d="M537.5,644.5h96a5,5,0,0,1,5,5v12a5,5,0,0,1,-5,5h-96a5,5,0,0,1,-5,-5v-12a5,5,0,0,1,5,-5z"></path><g id="node_text15" fill="black"><text id="kity_text_179" text-rendering="inherit" font-size="12" dy=".8em" y="647.7000000476837" x="542.5">Display$2.class</text></g></g><g id="minder_node19"><g id="node_expander15" style="cursor: pointer;" display="none"><path id="kity_path_378" fill="white" stroke="gray" d="M532.5,707.5A6,6,0,1,1,520.5,707.5A6,6,0,1,1,532.5,707.5"></path><path id="kity_path_379" fill="none" stroke="gray"></path></g><path id="node_outline16" fill="none" stroke="none" d="M537.5,696.5h96a5,5,0,0,1,5,5v12a5,5,0,0,1,-5,5h-96a5,5,0,0,1,-5,-5v-12a5,5,0,0,1,5,-5z"></path><g id="node_text16" fill="black"><text id="kity_text_181" text-rendering="inherit" font-size="12" dy=".8em" y="699.7000000476837" x="542.5">Display$3.class</text></g></g><g id="minder_node20"><g id="node_expander16" style="cursor: pointer;" display="none"><path id="kity_path_381" fill="white" stroke="gray" d="M532.5,759.5A6,6,0,1,1,520.5,759.5A6,6,0,1,1,532.5,759.5"></path><path id="kity_path_382" fill="none" stroke="gray"></path></g><path id="node_outline17" fill="none" stroke="none" d="M537.5,748.5h154a5,5,0,0,1,5,5v12a5,5,0,0,1,-5,5h-154a5,5,0,0,1,-5,-5v-12a5,5,0,0,1,5,-5z"></path><g id="node_text17" fill="black"><text id="kity_text_183" text-rendering="inherit" font-size="12" dy=".8em" y="751.7000000476837" x="542.5">Display$KeyHandler.class</text></g></g><g id="minder_node21"><g id="node_expander17" style="cursor: pointer;" display="none"><path id="kity_path_384" fill="white" stroke="gray" d="M532.5,811.5A6,6,0,1,1,520.5,811.5A6,6,0,1,1,532.5,811.5"></path><path id="kity_path_385" fill="none" stroke="gray"></path></g><path id="node_outline18" fill="none" stroke="none" d="M537.5,800.5h147a5,5,0,0,1,5,5v12a5,5,0,0,1,-5,5h-147a5,5,0,0,1,-5,-5v-12a5,5,0,0,1,5,-5z"></path><g id="node_text18" fill="black"><text id="kity_text_185" text-rendering="inherit" font-size="12" dy=".8em" y="803.7000000476837" x="542.5">Display$MainLoop.class</text></g></g><g id="minder_node22"><g id="node_expander18" style="cursor: pointer;" display="none"><path id="kity_path_387" fill="white" stroke="gray" d="M532.5,863.5A6,6,0,1,1,520.5,863.5A6,6,0,1,1,532.5,863.5"></path><path id="kity_path_388" fill="none" stroke="gray"></path></g><path id="node_outline19" fill="none" stroke="none" d="M537.5,852.5h81a5,5,0,0,1,5,5v12a5,5,0,0,1,-5,5h-81a5,5,0,0,1,-5,-5v-12a5,5,0,0,1,5,-5z"></path><g id="node_text19" fill="black"><text id="kity_text_187" text-rendering="inherit" font-size="12" dy=".8em" y="855.7000000476837" x="542.5">Display.class</text></g></g><g id="minder_node23"><g id="node_expander19" style="cursor: pointer;" display="none"><path id="kity_path_390" fill="white" stroke="gray" d="M532.5,915.5A6,6,0,1,1,520.5,915.5A6,6,0,1,1,532.5,915.5"></path><path id="kity_path_391" fill="none" stroke="gray"></path></g><path id="node_outline20" fill="none" stroke="none" d="M537.5,904.5h94a5,5,0,0,1,5,5v12a5,5,0,0,1,-5,5h-94a5,5,0,0,1,-5,-5v-12a5,5,0,0,1,5,-5z"></path><g id="node_text20" fill="black"><text id="kity_text_189" text-rendering="inherit" font-size="12" dy=".8em" y="907.7000000476837" x="542.5">Keyboard.class</text></g></g><g id="minder_node24"><g id="node_expander20" style="cursor: pointer;" display="none"><path id="kity_path_393" fill="white" stroke="gray" d="M532.5,967.5A6,6,0,1,1,520.5,967.5A6,6,0,1,1,532.5,967.5"></path><path id="kity_path_394" fill="none" stroke="gray"></path></g><path id="node_outline21" fill="none" stroke="none" d="M537.5,956.5h75a5,5,0,0,1,5,5v12a5,5,0,0,1,-5,5h-75a5,5,0,0,1,-5,-5v-12a5,5,0,0,1,5,-5z"></path><g id="node_text21" fill="black"><text id="kity_text_191" text-rendering="inherit" font-size="12" dy=".8em" y="959.7000000476837" x="542.5">Obj$1.class</text></g></g><g id="minder_node25"><g id="node_expander21" style="cursor: pointer;" display="none"><path id="kity_path_396" fill="white" stroke="gray" d="M532.5,1019.5A6,6,0,1,1,520.5,1019.5A6,6,0,1,1,532.5,1019.5"></path><path id="kity_path_397" fill="none" stroke="gray"></path></g><path id="node_outline22" fill="none" stroke="none" d="M537.5,1008.5h60a5,5,0,0,1,5,5v12a5,5,0,0,1,-5,5h-60a5,5,0,0,1,-5,-5v-12a5,5,0,0,1,5,-5z"></path><g id="node_text22" fill="black"><text id="kity_text_193" text-rendering="inherit" font-size="12" dy=".8em" y="1011.7000000476837" x="542.5">Obj.class</text></g></g><g id="minder_node26"><g id="node_expander24" style="cursor: pointer;"><path id="kity_path_405" fill="white" stroke="gray" d="M440.5,1071.5A6,6,0,1,1,428.5,1071.5A6,6,0,1,1,440.5,1071.5"></path><path id="kity_path_406" fill="none" stroke="gray" d="M430,1071.5L439,1071.5"></path></g><path id="node_outline25" fill="none" stroke="none" d="M445.5,1060.5h38a5,5,0,0,1,5,5v12a5,5,0,0,1,-5,5h-38a5,5,0,0,1,-5,-5v-12a5,5,0,0,1,5,-5z"></path><g id="node_text25" fill="black"><text id="kity_text_199" text-rendering="inherit" font-size="12" dy=".8em" y="1063.7000000476837" x="450.5">main</text></g></g><g id="minder_node27"><g id="node_expander23" style="cursor: pointer;" display="none"><path id="kity_path_402" fill="white" stroke="gray" d="M528.5,1071.5A6,6,0,1,1,516.5,1071.5A6,6,0,1,1,528.5,1071.5"></path><path id="kity_path_403" fill="none" stroke="gray"></path></g><path id="node_outline24" fill="none" stroke="none" d="M533.5,1060.5h69a5,5,0,0,1,5,5v12a5,5,0,0,1,-5,5h-69a5,5,0,0,1,-5,-5v-12a5,5,0,0,1,5,-5z"></path><g id="node_text24" fill="black"><text id="kity_text_197" text-rendering="inherit" font-size="12" dy=".8em" y="1063.7000000476837" x="538.5">Main.class</text></g></g><g id="minder_node28"><g id="node_expander25" style="cursor: pointer;" display="none"><path id="kity_path_408" fill="white" stroke="gray" d="M440.5,1123.5A6,6,0,1,1,428.5,1123.5A6,6,0,1,1,440.5,1123.5"></path><path id="kity_path_409" fill="none" stroke="gray"></path></g><path id="node_outline26" fill="none" stroke="none" d="M445.5,1112.5h163a5,5,0,0,1,5,5v12a5,5,0,0,1,-5,5h-163a5,5,0,0,1,-5,-5v-12a5,5,0,0,1,5,-5z"></path><g id="node_text26" fill="black"><text id="kity_text_201" text-rendering="inherit" font-size="12" dy=".8em" y="1115.7000000476837" x="450.5">.netbeans_automatic_build</text></g></g><g id="minder_node29"><g id="node_expander26" style="cursor: pointer;" display="none"><path id="kity_path_411" fill="white" stroke="gray" d="M440.5,1175.5A6,6,0,1,1,428.5,1175.5A6,6,0,1,1,440.5,1175.5"></path><path id="kity_path_412" fill="none" stroke="gray"></path></g><path id="node_outline27" fill="none" stroke="none" d="M445.5,1164.5h172a5,5,0,0,1,5,5v12a5,5,0,0,1,-5,5h-172a5,5,0,0,1,-5,-5v-12a5,5,0,0,1,5,-5z"></path><g id="node_text27" fill="black"><text id="kity_text_203" text-rendering="inherit" font-size="12" dy=".8em" y="1167.7000000476837" x="450.5">.netbeans_update_resources</text></g></g><g id="minder_node30"><g id="node_expander28" style="cursor: pointer;" display="none"><path id="kity_path_417" fill="white" stroke="gray" d="M341.5,1227.5A6,6,0,1,1,329.5,1227.5A6,6,0,1,1,341.5,1227.5"></path><path id="kity_path_418" fill="none" stroke="gray"></path></g><path id="node_outline29" fill="none" stroke="none" d="M346.5,1216.5h116a5,5,0,0,1,5,5v12a5,5,0,0,1,-5,5h-116a5,5,0,0,1,-5,-5v-12a5,5,0,0,1,5,-5z"></path><g id="node_text29" fill="black"><text id="kity_text_207" text-rendering="inherit" font-size="12" dy=".8em" y="1219.7000000476837" x="351.5">built-jar.properties</text></g></g><g id="minder_node31"><g id="node_expander32" style="cursor: pointer;"><path id="kity_path_429" fill="white" stroke="gray" d="M226.5,1314.5A6,6,0,1,1,214.5,1314.5A6,6,0,1,1,226.5,1314.5"></path><path id="kity_path_430" fill="none" stroke="gray" d="M216,1314.5L225,1314.5"></path></g><path id="node_outline33" fill="rgb(238, 243, 246)" stroke="rgb(115, 161, 191)" d="M230.5,1301.5h58a3,3,0,0,1,3,3v20a3,3,0,0,1,-3,3h-58a3,3,0,0,1,-3,-3v-20a3,3,0,0,1,3,-3z" stroke-width="1"></path><g id="node_text33" fill="black"><text id="kity_text_215" text-rendering="inherit" font-size="14" dy=".8em" y="1305.4000000953674" x="247.5">dist</text></g></g><g id="minder_node32"><g id="node_expander30" style="cursor: pointer;" display="none"><path id="kity_path_423" fill="white" stroke="gray" d="M331.5,1288.5A6,6,0,1,1,319.5,1288.5A6,6,0,1,1,331.5,1288.5"></path><path id="kity_path_424" fill="none" stroke="gray"></path></g><path id="node_outline31" fill="none" stroke="none" d="M336.5,1277.5h126a5,5,0,0,1,5,5v12a5,5,0,0,1,-5,5h-126a5,5,0,0,1,-5,-5v-12a5,5,0,0,1,5,-5z"></path><g id="node_text31" fill="black"><text id="kity_text_211" text-rendering="inherit" font-size="12" dy=".8em" y="1280.7000000476837" x="341.5">AsteroidsSurvival.jar</text></g></g><g id="minder_node33"><g id="node_expander31" style="cursor: pointer;" display="none"><path id="kity_path_426" fill="white" stroke="gray" d="M331.5,1340.5A6,6,0,1,1,319.5,1340.5A6,6,0,1,1,331.5,1340.5"></path><path id="kity_path_427" fill="none" stroke="gray"></path></g><path id="node_outline32" fill="none" stroke="none" d="M336.5,1329.5h85a5,5,0,0,1,5,5v12a5,5,0,0,1,-5,5h-85a5,5,0,0,1,-5,-5v-12a5,5,0,0,1,5,-5z"></path><g id="node_text32" fill="black"><text id="kity_text_213" text-rendering="inherit" font-size="12" dy=".8em" y="1332.7000000476837" x="341.5">README.TXT</text></g></g><g id="minder_node34"><g id="node_expander41" style="cursor: pointer;"><path id="kity_path_456" fill="white" stroke="gray" d="M226.5,1584.5A6,6,0,1,1,214.5,1584.5A6,6,0,1,1,226.5,1584.5"></path><path id="kity_path_457" fill="none" stroke="gray" d="M216,1584.5L225,1584.5"></path></g><path id="node_outline42" fill="rgb(238, 243, 246)" stroke="rgb(115, 161, 191)" d="M230.5,1571.5h98a3,3,0,0,1,3,3v20a3,3,0,0,1,-3,3h-98a3,3,0,0,1,-3,-3v-20a3,3,0,0,1,3,-3z" stroke-width="1"></path><g id="node_text42" fill="black"><text id="kity_text_233" text-rendering="inherit" font-size="14" dy=".8em" y="1575.4000000953674" x="247.5">nbproject</text></g></g><g id="minder_node35"><g id="node_expander36" style="cursor: pointer;"><path id="kity_path_441" fill="white" stroke="gray" d="M371.5,1454.5A6,6,0,1,1,359.5,1454.5A6,6,0,1,1,371.5,1454.5"></path><path id="kity_path_442" fill="none" stroke="gray" d="M361,1454.5L370,1454.5"></path></g><path id="node_outline37" fill="none" stroke="none" d="M376.5,1443.5h49a5,5,0,0,1,5,5v12a5,5,0,0,1,-5,5h-49a5,5,0,0,1,-5,-5v-12a5,5,0,0,1,5,-5z"></path><g id="node_text37" fill="black"><text id="kity_text_223" text-rendering="inherit" font-size="12" dy=".8em" y="1446.7000000476837" x="381.5">private</text></g></g><g id="minder_node36"><g id="node_expander33" style="cursor: pointer;" display="none"><path id="kity_path_432" fill="white" stroke="gray" d="M470.5,1402.5A6,6,0,1,1,458.5,1402.5A6,6,0,1,1,470.5,1402.5"></path><path id="kity_path_433" fill="none" stroke="gray"></path></g><path id="node_outline34" fill="none" stroke="none" d="M475.5,1391.5h108a5,5,0,0,1,5,5v12a5,5,0,0,1,-5,5h-108a5,5,0,0,1,-5,-5v-12a5,5,0,0,1,5,-5z"></path><g id="node_text34" fill="black"><text id="kity_text_217" text-rendering="inherit" font-size="12" dy=".8em" y="1394.7000000476837" x="480.5">config.properties</text></g></g><g id="minder_node37"><g id="node_expander34" style="cursor: pointer;" display="none"><path id="kity_path_435" fill="white" stroke="gray" d="M470.5,1454.5A6,6,0,1,1,458.5,1454.5A6,6,0,1,1,470.5,1454.5"></path><path id="kity_path_436" fill="none" stroke="gray"></path></g><path id="node_outline35" fill="none" stroke="none" d="M475.5,1443.5h111a5,5,0,0,1,5,5v12a5,5,0,0,1,-5,5h-111a5,5,0,0,1,-5,-5v-12a5,5,0,0,1,5,-5z"></path><g id="node_text35" fill="black"><text id="kity_text_219" text-rendering="inherit" font-size="12" dy=".8em" y="1446.7000000476837" x="480.5">private.properties</text></g></g><g id="minder_node38"><g id="node_expander35" style="cursor: pointer;" display="none"><path id="kity_path_438" fill="white" stroke="gray" d="M470.5,1506.5A6,6,0,1,1,458.5,1506.5A6,6,0,1,1,470.5,1506.5"></path><path id="kity_path_439" fill="none" stroke="gray"></path></g><path id="node_outline36" fill="none" stroke="none" d="M475.5,1495.5h73a5,5,0,0,1,5,5v12a5,5,0,0,1,-5,5h-73a5,5,0,0,1,-5,-5v-12a5,5,0,0,1,5,-5z"></path><g id="node_text36" fill="black"><text id="kity_text_221" text-rendering="inherit" font-size="12" dy=".8em" y="1498.7000000476837" x="480.5">private.xml</text></g></g><g id="minder_node39"><g id="node_expander37" style="cursor: pointer;" display="none"><path id="kity_path_444" fill="white" stroke="gray" d="M371.5,1558.5A6,6,0,1,1,359.5,1558.5A6,6,0,1,1,371.5,1558.5"></path><path id="kity_path_445" fill="none" stroke="gray"></path></g><path id="node_outline38" fill="none" stroke="none" d="M376.5,1547.5h93a5,5,0,0,1,5,5v12a5,5,0,0,1,-5,5h-93a5,5,0,0,1,-5,-5v-12a5,5,0,0,1,5,-5z"></path><g id="node_text38" fill="black"><text id="kity_text_225" text-rendering="inherit" font-size="12" dy=".8em" y="1550.7000000476837" x="381.5">build-impl.xml</text></g></g><g id="minder_node40"><g id="node_expander38" style="cursor: pointer;" display="none"><path id="kity_path_447" fill="white" stroke="gray" d="M371.5,1610.5A6,6,0,1,1,359.5,1610.5A6,6,0,1,1,371.5,1610.5"></path><path id="kity_path_448" fill="none" stroke="gray"></path></g><path id="node_outline39" fill="none" stroke="none" d="M376.5,1599.5h117a5,5,0,0,1,5,5v12a5,5,0,0,1,-5,5h-117a5,5,0,0,1,-5,-5v-12a5,5,0,0,1,5,-5z"></path><g id="node_text39" fill="black"><text id="kity_text_227" text-rendering="inherit" font-size="12" dy=".8em" y="1602.7000000476837" x="381.5">genfiles.properties</text></g></g><g id="minder_node41"><g id="node_expander39" style="cursor: pointer;" display="none"><path id="kity_path_450" fill="white" stroke="gray" d="M371.5,1662.5A6,6,0,1,1,359.5,1662.5A6,6,0,1,1,371.5,1662.5"></path><path id="kity_path_451" fill="none" stroke="gray"></path></g><path id="node_outline40" fill="none" stroke="none" d="M376.5,1651.5h112a5,5,0,0,1,5,5v12a5,5,0,0,1,-5,5h-112a5,5,0,0,1,-5,-5v-12a5,5,0,0,1,5,-5z"></path><g id="node_text40" fill="black"><text id="kity_text_229" text-rendering="inherit" font-size="12" dy=".8em" y="1654.7000000476837" x="381.5">project.properties</text></g></g><g id="minder_node42"><g id="node_expander40" style="cursor: pointer;" display="none"><path id="kity_path_453" fill="white" stroke="gray" d="M371.5,1714.5A6,6,0,1,1,359.5,1714.5A6,6,0,1,1,371.5,1714.5"></path><path id="kity_path_454" fill="none" stroke="gray"></path></g><path id="node_outline41" fill="none" stroke="none" d="M376.5,1703.5h74a5,5,0,0,1,5,5v12a5,5,0,0,1,-5,5h-74a5,5,0,0,1,-5,-5v-12a5,5,0,0,1,5,-5z"></path><g id="node_text41" fill="black"><text id="kity_text_231" text-rendering="inherit" font-size="12" dy=".8em" y="1706.7000000476837" x="381.5">project.xml</text></g></g><g id="minder_node43"><g id="node_expander59" style="cursor: pointer;"><path id="kity_path_510" fill="white" stroke="gray" d="M226.5,2322.5A6,6,0,1,1,214.5,2322.5A6,6,0,1,1,226.5,2322.5"></path><path id="kity_path_511" fill="none" stroke="gray" d="M216,2322.5L225,2322.5"></path></g><path id="node_outline60" fill="rgb(238, 243, 246)" stroke="rgb(115, 161, 191)" d="M230.5,2309.5h53a3,3,0,0,1,3,3v20a3,3,0,0,1,-3,3h-53a3,3,0,0,1,-3,-3v-20a3,3,0,0,1,3,-3z" stroke-width="1"></path><g id="node_text60" fill="black"><text id="kity_text_269" text-rendering="inherit" font-size="14" dy=".8em" y="2313.4000000953674" x="247.5">src</text></g></g><g id="minder_node44"><g id="node_expander56" style="cursor: pointer;"><path id="kity_path_501" fill="white" stroke="gray" d="M326.5,2192.5A6,6,0,1,1,314.5,2192.5A6,6,0,1,1,326.5,2192.5"></path><path id="kity_path_502" fill="none" stroke="gray" d="M316,2192.5L325,2192.5"></path></g><path id="node_outline57" fill="none" stroke="none" d="M331.5,2181.5h42a5,5,0,0,1,5,5v12a5,5,0,0,1,-5,5h-42a5,5,0,0,1,-5,-5v-12a5,5,0,0,1,5,-5z"></path><g id="node_text57" fill="black"><text id="kity_text_263" text-rendering="inherit" font-size="12" dy=".8em" y="2184.7000000476837" x="336.5">game</text></g></g><g id="minder_node45"><g id="node_expander51" style="cursor: pointer;"><path id="kity_path_486" fill="white" stroke="gray" d="M418.5,1984.5A6,6,0,1,1,406.5,1984.5A6,6,0,1,1,418.5,1984.5"></path><path id="kity_path_487" fill="none" stroke="gray" d="M408,1984.5L417,1984.5"></path></g><path id="node_outline52" fill="none" stroke="none" d="M423.5,1973.5h29a5,5,0,0,1,5,5v12a5,5,0,0,1,-5,5h-29a5,5,0,0,1,-5,-5v-12a5,5,0,0,1,5,-5z"></path><g id="node_text52" fill="black"><text id="kity_text_253" text-rendering="inherit" font-size="12" dy=".8em" y="1976.7000000476837" x="428.5">obj</text></g></g><g id="minder_node46"><g id="node_expander42" style="cursor: pointer;" display="none"><path id="kity_path_459" fill="white" stroke="gray" d="M497.5,1776.5A6,6,0,1,1,485.5,1776.5A6,6,0,1,1,497.5,1776.5"></path><path id="kity_path_460" fill="none" stroke="gray"></path></g><path id="node_outline43" fill="none" stroke="none" d="M502.5,1765.5h84a5,5,0,0,1,5,5v12a5,5,0,0,1,-5,5h-84a5,5,0,0,1,-5,-5v-12a5,5,0,0,1,5,-5z"></path><g id="node_text43" fill="black"><text id="kity_text_235" text-rendering="inherit" font-size="12" dy=".8em" y="1768.7000000476837" x="507.5">Asteroid.java</text></g></g><g id="minder_node47"><g id="node_expander43" style="cursor: pointer;" display="none"><path id="kity_path_462" fill="white" stroke="gray" d="M497.5,1828.5A6,6,0,1,1,485.5,1828.5A6,6,0,1,1,497.5,1828.5"></path><path id="kity_path_463" fill="none" stroke="gray"></path></g><path id="node_outline44" fill="none" stroke="none" d="M502.5,1817.5h62a5,5,0,0,1,5,5v12a5,5,0,0,1,-5,5h-62a5,5,0,0,1,-5,-5v-12a5,5,0,0,1,5,-5z"></path><g id="node_text44" fill="black"><text id="kity_text_237" text-rendering="inherit" font-size="12" dy=".8em" y="1820.7000000476837" x="507.5">HUD.java</text></g></g><g id="minder_node48"><g id="node_expander44" style="cursor: pointer;" display="none"><path id="kity_path_465" fill="white" stroke="gray" d="M497.5,1880.5A6,6,0,1,1,485.5,1880.5A6,6,0,1,1,497.5,1880.5"></path><path id="kity_path_466" fill="none" stroke="gray"></path></g><path id="node_outline45" fill="none" stroke="none" d="M502.5,1869.5h86a5,5,0,0,1,5,5v12a5,5,0,0,1,-5,5h-86a5,5,0,0,1,-5,-5v-12a5,5,0,0,1,5,-5z"></path><g id="node_text45" fill="black"><text id="kity_text_239" text-rendering="inherit" font-size="12" dy=".8em" y="1872.7000000476837" x="507.5">Initializer.java</text></g></g><g id="minder_node49"><g id="node_expander45" style="cursor: pointer;" display="none"><path id="kity_path_468" fill="white" stroke="gray" d="M497.5,1932.5A6,6,0,1,1,485.5,1932.5A6,6,0,1,1,497.5,1932.5"></path><path id="kity_path_469" fill="none" stroke="gray"></path></g><path id="node_outline46" fill="none" stroke="none" d="M502.5,1921.5h73a5,5,0,0,1,5,5v12a5,5,0,0,1,-5,5h-73a5,5,0,0,1,-5,-5v-12a5,5,0,0,1,5,-5z"></path><g id="node_text46" fill="black"><text id="kity_text_241" text-rendering="inherit" font-size="12" dy=".8em" y="1924.7000000476837" x="507.5">Saucer.java</text></g></g><g id="minder_node50"><g id="node_expander46" style="cursor: pointer;" display="none"><path id="kity_path_471" fill="white" stroke="gray" d="M497.5,1984.5A6,6,0,1,1,485.5,1984.5A6,6,0,1,1,497.5,1984.5"></path><path id="kity_path_472" fill="none" stroke="gray"></path></g><path id="node_outline47" fill="none" stroke="none" d="M502.5,1973.5h100a5,5,0,0,1,5,5v12a5,5,0,0,1,-5,5h-100a5,5,0,0,1,-5,-5v-12a5,5,0,0,1,5,-5z"></path><g id="node_text47" fill="black"><text id="kity_text_243" text-rendering="inherit" font-size="12" dy=".8em" y="1976.7000000476837" x="507.5">SaucerShot.java</text></g></g><g id="minder_node51"><g id="node_expander47" style="cursor: pointer;" display="none"><path id="kity_path_474" fill="white" stroke="gray" d="M497.5,2036.5A6,6,0,1,1,485.5,2036.5A6,6,0,1,1,497.5,2036.5"></path><path id="kity_path_475" fill="none" stroke="gray"></path></g><path id="node_outline48" fill="none" stroke="none" d="M502.5,2025.5h61a5,5,0,0,1,5,5v12a5,5,0,0,1,-5,5h-61a5,5,0,0,1,-5,-5v-12a5,5,0,0,1,5,-5z"></path><g id="node_text48" fill="black"><text id="kity_text_245" text-rendering="inherit" font-size="12" dy=".8em" y="2028.7000000476837" x="507.5">Ship.java</text></g></g><g id="minder_node52"><g id="node_expander48" style="cursor: pointer;" display="none"><path id="kity_path_477" fill="white" stroke="gray" d="M497.5,2088.5A6,6,0,1,1,485.5,2088.5A6,6,0,1,1,497.5,2088.5"></path><path id="kity_path_478" fill="none" stroke="gray"></path></g><path id="node_outline49" fill="#ffffff" stroke="none" d="M502.5,2077.5h122a5,5,0,0,1,5,5v12a5,5,0,0,1,-5,5h-122a5,5,0,0,1,-5,-5v-12a5,5,0,0,1,5,-5z" stroke-width="3"></path><g id="node_text49" fill="black"><text id="kity_text_247" text-rendering="inherit" font-size="12" dy=".8em" y="2080.7000000476837" x="507.5">ShipPropulsion.java</text></g></g><g id="minder_node53"><g id="node_expander49" style="cursor: pointer;" display="none"><path id="kity_path_480" fill="white" stroke="gray" d="M497.5,2140.5A6,6,0,1,1,485.5,2140.5A6,6,0,1,1,497.5,2140.5"></path><path id="kity_path_481" fill="none" stroke="gray"></path></g><path id="node_outline50" fill="none" stroke="none" d="M502.5,2129.5h62a5,5,0,0,1,5,5v12a5,5,0,0,1,-5,5h-62a5,5,0,0,1,-5,-5v-12a5,5,0,0,1,5,-5z"></path><g id="node_text50" fill="black"><text id="kity_text_249" text-rendering="inherit" font-size="12" dy=".8em" y="2132.7000000476837" x="507.5">Shot.java</text></g></g><g id="minder_node54"><g id="node_expander50" style="cursor: pointer;" display="none"><path id="kity_path_483" fill="white" stroke="gray" d="M497.5,2192.5A6,6,0,1,1,485.5,2192.5A6,6,0,1,1,497.5,2192.5"></path><path id="kity_path_484" fill="none" stroke="gray"></path></g><path id="node_outline51" fill="none" stroke="none" d="M502.5,2181.5h68a5,5,0,0,1,5,5v12a5,5,0,0,1,-5,5h-68a5,5,0,0,1,-5,-5v-12a5,5,0,0,1,5,-5z"></path><g id="node_text51" fill="black"><text id="kity_text_251" text-rendering="inherit" font-size="12" dy=".8em" y="2184.7000000476837" x="507.5">Spark.java</text></g></g><g id="minder_node55"><g id="node_expander52" style="cursor: pointer;" display="none"><path id="kity_path_489" fill="white" stroke="gray" d="M418.5,2244.5A6,6,0,1,1,406.5,2244.5A6,6,0,1,1,418.5,2244.5"></path><path id="kity_path_490" fill="none" stroke="gray"></path></g><path id="node_outline53" fill="none" stroke="none" d="M423.5,2233.5h123a5,5,0,0,1,5,5v12a5,5,0,0,1,-5,5h-123a5,5,0,0,1,-5,-5v-12a5,5,0,0,1,5,-5z"></path><g id="node_text53" fill="black"><text id="kity_text_255" text-rendering="inherit" font-size="12" dy=".8em" y="2236.7000000476837" x="428.5">AsteroidsGame.java</text></g></g><g id="minder_node56"><g id="node_expander53" style="cursor: pointer;" display="none"><path id="kity_path_492" fill="white" stroke="gray" d="M418.5,2296.5A6,6,0,1,1,406.5,2296.5A6,6,0,1,1,418.5,2296.5"></path><path id="kity_path_493" fill="none" stroke="gray"></path></g><path id="node_outline54" fill="none" stroke="none" d="M423.5,2285.5h76a5,5,0,0,1,5,5v12a5,5,0,0,1,-5,5h-76a5,5,0,0,1,-5,-5v-12a5,5,0,0,1,5,-5z"></path><g id="node_text54" fill="black"><text id="kity_text_257" text-rendering="inherit" font-size="12" dy=".8em" y="2288.7000000476837" x="428.5">Display.java</text></g></g><g id="minder_node57"><g id="node_expander54" style="cursor: pointer;" display="none"><path id="kity_path_495" fill="white" stroke="gray" d="M418.5,2348.5A6,6,0,1,1,406.5,2348.5A6,6,0,1,1,418.5,2348.5"></path><path id="kity_path_496" fill="none" stroke="gray"></path></g><path id="node_outline55" fill="none" stroke="none" d="M423.5,2337.5h90a5,5,0,0,1,5,5v12a5,5,0,0,1,-5,5h-90a5,5,0,0,1,-5,-5v-12a5,5,0,0,1,5,-5z"></path><g id="node_text55" fill="black"><text id="kity_text_259" text-rendering="inherit" font-size="12" dy=".8em" y="2340.7000000476837" x="428.5">Keyboard.java</text></g></g><g id="minder_node58"><g id="node_expander55" style="cursor: pointer;" display="none"><path id="kity_path_498" fill="white" stroke="gray" d="M418.5,2400.5A6,6,0,1,1,406.5,2400.5A6,6,0,1,1,418.5,2400.5"></path><path id="kity_path_499" fill="none" stroke="gray"></path></g><path id="node_outline56" fill="none" stroke="none" d="M423.5,2389.5h56a5,5,0,0,1,5,5v12a5,5,0,0,1,-5,5h-56a5,5,0,0,1,-5,-5v-12a5,5,0,0,1,5,-5z"></path><g id="node_text56" fill="black"><text id="kity_text_261" text-rendering="inherit" font-size="12" dy=".8em" y="2392.7000000476837" x="428.5">Obj.java</text></g></g><g id="minder_node59"><g id="node_expander58" style="cursor: pointer;"><path id="kity_path_507" fill="white" stroke="gray" d="M326.5,2452.5A6,6,0,1,1,314.5,2452.5A6,6,0,1,1,326.5,2452.5"></path><path id="kity_path_508" fill="none" stroke="gray" d="M316,2452.5L325,2452.5"></path></g><path id="node_outline59" fill="none" stroke="none" d="M331.5,2441.5h38a5,5,0,0,1,5,5v12a5,5,0,0,1,-5,5h-38a5,5,0,0,1,-5,-5v-12a5,5,0,0,1,5,-5z"></path><g id="node_text59" fill="black"><text id="kity_text_267" text-rendering="inherit" font-size="12" dy=".8em" y="2444.7000000476837" x="336.5">main</text></g></g><g id="minder_node60"><g id="node_expander57" style="cursor: pointer;" display="none"><path id="kity_path_504" fill="white" stroke="gray" d="M414.5,2452.5A6,6,0,1,1,402.5,2452.5A6,6,0,1,1,414.5,2452.5"></path><path id="kity_path_505" fill="none" stroke="gray"></path></g><path id="node_outline58" fill="none" stroke="none" d="M419.5,2441.5h64a5,5,0,0,1,5,5v12a5,5,0,0,1,-5,5h-64a5,5,0,0,1,-5,-5v-12a5,5,0,0,1,5,-5z"></path><g id="node_text58" fill="black"><text id="kity_text_265" text-rendering="inherit" font-size="12" dy=".8em" y="2444.7000000476837" x="424.5">Main.java</text></g></g><g id="minder_node61"><g id="node_expander60" style="cursor: pointer;" display="none"><path id="kity_path_513" fill="white" stroke="gray" d="M226.5,2516.5A6,6,0,1,1,214.5,2516.5A6,6,0,1,1,226.5,2516.5"></path><path id="kity_path_514" fill="none" stroke="gray"></path></g><path id="node_outline61" fill="rgb(238, 243, 246)" stroke="rgb(115, 161, 191)" d="M230.5,2503.5h95a3,3,0,0,1,3,3v20a3,3,0,0,1,-3,3h-95a3,3,0,0,1,-3,-3v-20a3,3,0,0,1,3,-3z" stroke-width="1"></path><g id="node_text61" fill="black"><text id="kity_text_271" text-rendering="inherit" font-size="14" dy=".8em" y="2507.4000000953674" x="247.5">build.xml</text></g></g><g id="minder_node62"><g id="node_expander61" style="cursor: pointer;" display="none"><path id="kity_path_516" fill="white" stroke="gray" d="M226.5,2582.5A6,6,0,1,1,214.5,2582.5A6,6,0,1,1,226.5,2582.5"></path><path id="kity_path_517" fill="none" stroke="gray"></path></g><path id="node_outline62" fill="rgb(238, 243, 246)" stroke="rgb(115, 161, 191)" d="M230.5,2569.5h114a3,3,0,0,1,3,3v20a3,3,0,0,1,-3,3h-114a3,3,0,0,1,-3,-3v-20a3,3,0,0,1,3,-3z" stroke-width="1"></path><g id="node_text62" fill="black"><text id="kity_text_273" text-rendering="inherit" font-size="14" dy=".8em" y="2573.4000000953674" x="247.5">manifest.mf</text></g></g></g></g></svg>